<svg xmlns="http://www.w3.org/2000/svg" width="600" height="400" viewBox="0 0 600 400">
  <!-- 배경 -->
  <rect width="600" height="400" fill="#f5f9ff" />
  
  <!-- 에너지 파동 효과 -->
  <path d="M0,200 Q75,100 150,200 T300,200 T450,200 T600,200" stroke="#43c6ac" stroke-width="10" fill="none" opacity="0.6" />
  <path d="M0,200 Q75,120 150,200 T300,200 T450,200 T600,200" stroke="#43c6ac" stroke-width="8" fill="none" opacity="0.4" />
  <path d="M0,200 Q75,140 150,200 T300,200 T450,200 T600,200" stroke="#43c6ac" stroke-width="6" fill="none" opacity="0.2" />
  
  <!-- 에너지 볼 -->
  <circle cx="300" cy="200" r="80" fill="url(#energyGradient)" />
  
  <!-- 에너지 광선 -->
  <g opacity="0.7">
    <line x1="300" y1="120" x2="300" y2="50" stroke="#ffcc00" stroke-width="5" />
    <line x1="300" y1="280" x2="300" y2="350" stroke="#ffcc00" stroke-width="5" />
    <line x1="220" y1="200" x2="150" y2="200" stroke="#ffcc00" stroke-width="5" />
    <line x1="380" y1="200" x2="450" y2="200" stroke="#ffcc00" stroke-width="5" />
    
    <line x1="260" y1="160" x2="210" y2="110" stroke="#ffcc00" stroke-width="5" />
    <line x1="340" y1="160" x2="390" y2="110" stroke="#ffcc00" stroke-width="5" />
    <line x1="260" y1="240" x2="210" y2="290" stroke="#ffcc00" stroke-width="5" />
    <line x1="340" y1="240" x2="390" y2="290" stroke="#ffcc00" stroke-width="5" />
  </g>
  
  <!-- 그라데이션 정의 -->
  <defs>
    <linearGradient id="energyGradient" x1="0%" y1="0%" x2="100%" y2="100%">
      <stop offset="0%" stop-color="#ffcc00" />
      <stop offset="100%" stop-color="#ff6b6b" />
    </linearGradient>
  </defs>
  
  <!-- 작은 에너지 입자들 -->
  <g>
    <circle cx="200" cy="100" r="10" fill="#ffcc00" opacity="0.8" />
    <circle cx="400" cy="100" r="8" fill="#ffcc00" opacity="0.7" />
    <circle cx="150" cy="250" r="12" fill="#ffcc00" opacity="0.6" />
    <circle cx="450" cy="250" r="9" fill="#ffcc00" opacity="0.8" />
    <circle cx="250" cy="350" r="7" fill="#ffcc00" opacity="0.7" />
    <circle cx="350" cy="350" r="11" fill="#ffcc00" opacity="0.6" />
    <circle cx="250" cy="50" r="8" fill="#ffcc00" opacity="0.8" />
    <circle cx="350" cy="50" r="10" fill="#ffcc00" opacity="0.7" />
  </g>
</svg>