<?xml version="1.0" encoding="UTF-8"?>
<svg width="200" height="200" viewBox="0 0 200 200" xmlns="http://www.w3.org/2000/svg">
  <defs>
    <linearGradient id="muscleGradient" x1="0%" y1="0%" x2="100%" y2="100%">
      <stop offset="0%" stop-color="#ff0040" />
      <stop offset="100%" stop-color="#990026" />
    </linearGradient>
  </defs>
  <g fill="url(#muscleGradient)">
    <path d="M100,30 C130,30 150,50 150,80 C150,110 130,130 100,130 C70,130 50,110 50,80 C50,50 70,30 100,30 Z" />
    <path d="M70,80 C70,65 85,50 100,50 C115,50 130,65 130,80 C130,95 115,110 100,110 C85,110 70,95 70,80 Z" fill="#222" />
    <path d="M85,80 C85,72.5 92.5,65 100,65 C107.5,65 115,72.5 115,80 C115,87.5 107.5,95 100,95 C92.5,95 85,87.5 85,80 Z" />
    <path d="M100,130 L100,170 L90,170 L90,140 L80,140 L80,170 L70,170 L70,140 L60,140 L60,170 L50,170 L50,140 L40,140 L40,130 Z" />
    <path d="M100,130 L100,170 L110,170 L110,140 L120,140 L120,170 L130,170 L130,140 L140,140 L140,170 L150,170 L150,140 L160,140 L160,130 Z" />
    <circle cx="100" cy="80" r="5" fill="white" opacity="0.5" />
  </g>
  <path d="M30,80 C30,40 60,10 100,10 C140,10 170,40 170,80 C170,120 140,150 100,150 C60,150 30,120 30,80 Z" fill="none" stroke="#ff0040" stroke-width="3" stroke-dasharray="5,5" />
  <text x="100" y="190" font-family="Arial" font-size="12" fill="#ff0040" text-anchor="middle">EXTREME POWER</text>
</svg>